<svg width="160" height="48" viewBox="0 0 160 48" fill="none" xmlns="http://www.w3.org/2000/svg">
  <defs>
    <linearGradient id="bolt-core" x1="0" y1="24" x2="160" y2="24" gradientUnits="userSpaceOnUse">
      <stop offset="0" stop-color="#52F5FF"/>
      <stop offset="0.22" stop-color="#A0FFFB"/>
      <stop offset="0.5" stop-color="#FFFFFF"/>
      <stop offset="0.78" stop-color="#A077FF"/>
      <stop offset="1" stop-color="#FF54D4"/>
    </linearGradient>
    <radialGradient id="bolt-glow" cx="0" cy="0" r="1" gradientUnits="userSpaceOnUse" gradientTransform="translate(80 24) scale(80 20)">
      <stop offset="0" stop-color="#FFFFFF" stop-opacity="0.95"/>
      <stop offset="0.48" stop-color="#61E2FF" stop-opacity="0.55"/>
      <stop offset="1" stop-color="#2E2CFF" stop-opacity="0"/>
    </radialGradient>
    <filter id="bolt-shadow" x="-20" y="-20" width="200" height="88" filterUnits="userSpaceOnUse" color-interpolation-filters="sRGB">
      <feGaussianBlur stdDeviation="6" result="glow"/>
    </filter>
  </defs>
  <g filter="url(#bolt-shadow)">
    <rect x="8" y="12" width="144" height="24" rx="12" fill="url(#bolt-glow)"/>
  </g>
  <path d="M12 9C12 6.79086 13.7909 5 16 5H104L148 24L104 43H16C13.7909 43 12 41.2091 12 39V9Z" fill="url(#bolt-core)"/>
  <path d="M104 5L148 24L104 43C108 34 108 14 104 5Z" fill="#FFFFFF" fill-opacity="0.32"/>
  <path d="M20 10H96C98.2091 10 100 11.7909 100 14V34C100 36.2091 98.2091 38 96 38H20C17.7909 38 16 36.2091 16 34V14C16 11.7909 17.7909 10 20 10Z" fill="#071D30" fill-opacity="0.2"/>
</svg>
