<svg width="96" height="96" viewBox="0 0 96 96" fill="none" xmlns="http://www.w3.org/2000/svg">
  <defs>
    <radialGradient id="homing-core" cx="0" cy="0" r="1" gradientUnits="userSpaceOnUse" gradientTransform="translate(48 48) scale(38)">
      <stop offset="0" stop-color="#D8FFF7"/>
      <stop offset="0.55" stop-color="#6CE4D9"/>
      <stop offset="1" stop-color="#15969E"/>
    </radialGradient>
    <linearGradient id="homing-ring" x1="24" y1="24" x2="72" y2="72" gradientUnits="userSpaceOnUse">
      <stop offset="0" stop-color="#B1FFF0"/>
      <stop offset="1" stop-color="#2AB4A6"/>
    </linearGradient>
    <filter id="homing-glow" x="-24" y="-24" width="144" height="144" filterUnits="userSpaceOnUse" color-interpolation-filters="sRGB">
      <feGaussianBlur stdDeviation="15" result="glow"/>
    </filter>
  </defs>
  <g filter="url(#homing-glow)">
    <circle cx="48" cy="48" r="40" fill="#3BC9DB" fill-opacity="0.35"/>
  </g>
  <circle cx="48" cy="48" r="34" fill="#01292D" fill-opacity="0.3" stroke="url(#homing-ring)" stroke-width="4"/>
  <circle cx="48" cy="48" r="26" fill="url(#homing-core)"/>
  <path d="M48 26C54.6274 26 60 31.3726 60 38C60 44.6274 54.6274 50 48 50C41.3726 50 36 44.6274 36 38C36 31.3726 41.3726 26 48 26Z" fill="#E6FFFA" fill-opacity="0.55"/>
  <path d="M48 24C58.4934 24 67 32.5066 67 43C67 53.4934 58.4934 62 48 62C37.5066 62 29 53.4934 29 43C29 32.5066 37.5066 24 48 24Z" stroke="#A5FFF1" stroke-width="3" stroke-dasharray="8 6"/>
  <path d="M48 70C58.4934 70 67 61.4934 67 51" stroke="#A5FFF1" stroke-width="3" stroke-linecap="round" stroke-dasharray="10 8"/>
</svg>
