<svg width="96" height="96" viewBox="0 0 96 96" fill="none" xmlns="http://www.w3.org/2000/svg">
  <defs>
    <radialGradient id="life-core" cx="0" cy="0" r="1" gradientUnits="userSpaceOnUse" gradientTransform="translate(48 48) scale(38)">
      <stop offset="0" stop-color="#FFD6DD"/>
      <stop offset="0.5" stop-color="#FF6B81"/>
      <stop offset="1" stop-color="#C2185B"/>
    </radialGradient>
    <filter id="life-glow" x="-24" y="-24" width="144" height="144" filterUnits="userSpaceOnUse" color-interpolation-filters="sRGB">
      <feGaussianBlur stdDeviation="16" result="glow"/>
    </filter>
  </defs>
  <g filter="url(#life-glow)">
    <circle cx="48" cy="48" r="42" fill="#FA5252" fill-opacity="0.35"/>
  </g>
  <circle cx="48" cy="48" r="34" fill="#2D0012" fill-opacity="0.25" stroke="#FFB0BC" stroke-width="4"/>
  <path d="M48 68L35 56.5C29 50.9 26 45.2 26 39.5C26 33.8 31 28 37.7 28C42 28 45.8 30.2 48 33.8C50.2 30.2 54 28 58.3 28C65 28 70 33.8 70 39.5C70 45.2 67 50.9 61 56.5L48 68Z" fill="url(#life-core)"/>
  <path d="M48 64L36.5 53.5C31.5 48.7 29 44.1 29 39.5C29 35 32.8 31 37.7 31C41 31 44 32.7 46 35.6L48 38.6L50 35.6C52 32.7 55 31 58.3 31C63.2 31 67 35 67 39.5C67 44.1 64.5 48.7 59.5 53.5L48 64Z" fill="#FFE4EA" fill-opacity="0.55"/>
</svg>
