<svg width="96" height="96" viewBox="0 0 96 96" fill="none" xmlns="http://www.w3.org/2000/svg">
  <defs>
    <radialGradient id="mystery-core" cx="0" cy="0" r="1" gradientUnits="userSpaceOnUse" gradientTransform="translate(48 48) scale(38)">
      <stop offset="0" stop-color="#F5F9FF"/>
      <stop offset="0.45" stop-color="#8BA0FF"/>
      <stop offset="1" stop-color="#3640A3"/>
    </radialGradient>
    <linearGradient id="mystery-ring" x1="28" y1="28" x2="68" y2="68" gradientUnits="userSpaceOnUse">
      <stop offset="0" stop-color="#B9C4FF"/>
      <stop offset="1" stop-color="#4B59D9"/>
    </linearGradient>
    <filter id="mystery-glow" x="-24" y="-24" width="144" height="144" filterUnits="userSpaceOnUse" color-interpolation-filters="sRGB">
      <feGaussianBlur stdDeviation="15" result="glow"/>
    </filter>
  </defs>
  <g filter="url(#mystery-glow)">
    <circle cx="48" cy="48" r="40" fill="#7184FF" fill-opacity="0.35"/>
  </g>
  <circle cx="48" cy="48" r="34" fill="#0B1038" fill-opacity="0.3" stroke="url(#mystery-ring)" stroke-width="4"/>
  <circle cx="48" cy="48" r="28" fill="url(#mystery-core)"/>
  <path d="M48 32C51.2 32 53.8 33.1 55.8 35.1C57.8 37.1 58.8 39.7 58.8 42.9C58.8 46.5 57 49.4 53.3 51.6L51.2 52.8C50.4 53.3 49.9 54.1 49.9 55H45.8C45.8 52.6 46.7 50.7 48.6 49.4L51.2 47.8C52.8 46.8 53.6 45.2 53.6 43.1C53.6 41.3 53 39.9 51.9 38.8C50.8 37.7 49.4 37.2 47.7 37.2C45.9 37.2 44.5 37.8 43.4 38.9C42.3 40 41.8 41.5 41.8 43.4H36.7C36.7 40.1 37.8 37.4 40 35.3C42.2 33.1 44.9 32 48 32ZM47.3 61.7H52.7V66.3H47.3V61.7Z" fill="#F2F5FF"/>
</svg>
