<svg width="96" height="96" viewBox="0 0 96 96" fill="none" xmlns="http://www.w3.org/2000/svg">
  <defs>
    <radialGradient id="ultra-core" cx="0" cy="0" r="1" gradientUnits="userSpaceOnUse" gradientTransform="translate(48 48) scale(40)">
      <stop offset="0" stop-color="#FFF9D0"/>
      <stop offset="0.45" stop-color="#FFE780"/>
      <stop offset="1" stop-color="#FFCD1A"/>
    </radialGradient>
    <linearGradient id="ultra-arrow" x1="26" y1="48" x2="70" y2="48" gradientUnits="userSpaceOnUse">
      <stop offset="0" stop-color="#FFF3C1"/>
      <stop offset="0.5" stop-color="#FFE16B"/>
      <stop offset="1" stop-color="#FFB400"/>
    </linearGradient>
    <filter id="ultra-glow" x="-24" y="-24" width="144" height="144" filterUnits="userSpaceOnUse" color-interpolation-filters="sRGB">
      <feGaussianBlur stdDeviation="18" result="glow"/>
    </filter>
  </defs>
  <g filter="url(#ultra-glow)">
    <circle cx="48" cy="48" r="42" fill="#FFD43B" fill-opacity="0.35"/>
  </g>
  <circle cx="48" cy="48" r="34" fill="#2E2600" fill-opacity="0.25" stroke="#FFE99A" stroke-width="4"/>
  <path d="M34 48L50 26L62 38L60 40H70C71.933 40 73.5 41.567 73.5 43.5V52.5C73.5 54.433 71.933 56 70 56H60L62 58L50 70L34 48Z" fill="url(#ultra-arrow)"/>
  <path d="M40 48L52 32L59 39H70V50H59L52 57L40 48Z" fill="#FFF3C6" fill-opacity="0.6"/>
  <circle cx="48" cy="48" r="16" stroke="#FFF6D2" stroke-width="4" stroke-dasharray="6 8"/>
</svg>
